<?xml version="1.0" encoding="utf-8"?>
<!-- Generator: Adobe Illustrator 17.0.2, SVG Export Plug-In . SVG Version: 6.00 Build 0)  -->
<!DOCTYPE svg PUBLIC "-//W3C//DTD SVG 1.1//EN" "http://www.w3.org/Graphics/SVG/1.1/DTD/svg11.dtd">
<svg version="1.1" id="Layer_1" xmlns="http://www.w3.org/2000/svg" xmlns:xlink="http://www.w3.org/1999/xlink" x="0px" y="0px"
	 width="20px" height="20px" viewBox="0 0 20 20" enable-background="new 0 0 20 20" xml:space="preserve">
<g>
	<g>
		<path fill="#FFFFFF" d="M10.438,13.357c-2.637,0-4.782-2.146-4.782-4.783s2.146-4.783,4.782-4.783s4.782,2.146,4.782,4.783
			S13.074,13.357,10.438,13.357z M10.438,4.442c-2.278,0-4.132,1.854-4.132,4.132s1.854,4.132,4.132,4.132s4.132-1.854,4.132-4.132
			S12.716,4.442,10.438,4.442z"/>
	</g>
	<g>
		<path fill="#FFFFFF" d="M10.438,13.357c-1.32,0-2.032-2.464-2.032-4.783s0.712-4.783,2.032-4.783c1.32,0,2.032,2.464,2.032,4.783
			S11.758,13.357,10.438,13.357z M10.438,4.442c-0.577,0-1.382,1.572-1.382,4.132s0.805,4.132,1.382,4.132s1.382-1.572,1.382-4.132
			S11.015,4.442,10.438,4.442z"/>
	</g>
	<rect x="5.98" y="8.334" fill="#FFFFFF" width="8.914" height="0.65"/>
	<rect x="6.553" y="5.925" fill="#FFFFFF" width="7.77" height="0.65"/>
	<rect x="6.553" y="10.603" fill="#FFFFFF" width="7.77" height="0.65"/>
</g>
<path fill="#FFFFFF" d="M8.618,18.368v-3.447H1.675V2.228H19.2v12.692h-7.134L8.618,18.368z M2.325,14.27h6.943v2.529l2.528-2.529
	h6.753V2.879H2.325V14.27z"/>
</svg>
