<?xml version="1.0" encoding="utf-8"?>
<!-- Generator: Adobe Illustrator 17.1.0, SVG Export Plug-In . SVG Version: 6.00 Build 0)  -->
<!DOCTYPE svg PUBLIC "-//W3C//DTD SVG 1.1//EN" "http://www.w3.org/Graphics/SVG/1.1/DTD/svg11.dtd">
<svg version="1.1" id="Layer_1" xmlns="http://www.w3.org/2000/svg" xmlns:xlink="http://www.w3.org/1999/xlink" x="0px" y="0px"
	 viewBox="0 0 50 50" enable-background="new 0 0 50 50" xml:space="preserve">
<g id="Layer_2">
</g>
<g>
	<path fill="#FFFFFF" d="M24.154,24.933H12.659c-0.359,0-0.65-0.291-0.65-0.65s0.291-0.65,0.65-0.65h11.495
		c0.359,0,0.65,0.291,0.65,0.65S24.513,24.933,24.154,24.933z"/>
	<path fill="#FFFFFF" d="M24.154,21.337H6.653c-0.359,0-0.65-0.291-0.65-0.65s0.291-0.65,0.65-0.65h17.501
		c0.359,0,0.65,0.291,0.65,0.65S24.513,21.337,24.154,21.337z"/>
	<path fill="#FFFFFF" d="M24.154,28.525h-7.042c-0.359,0-0.65-0.291-0.65-0.65s0.291-0.65,0.65-0.65h7.042
		c0.359,0,0.65,0.291,0.65,0.65S24.513,28.525,24.154,28.525z"/>
	<path fill="#FFFFFF" d="M23.994,32.549c-0.167,0-0.333-0.063-0.46-0.19c-0.253-0.255-0.253-0.666,0-0.92l2.344-2.343
		c0.254-0.254,0.666-0.255,0.92,0.001c0.254,0.254,0.254,0.665,0,0.919l-2.345,2.343C24.326,32.485,24.16,32.549,23.994,32.549z"/>
	<path fill="#FFFFFF" d="M31.61,35.703c-0.359,0-0.65-0.291-0.65-0.65v-3.314c0-0.359,0.291-0.65,0.65-0.65s0.65,0.291,0.65,0.65
		v3.314C32.261,35.412,31.97,35.703,31.61,35.703z"/>
	<path fill="#FFFFFF" d="M39.225,32.549c-0.166,0-0.333-0.063-0.46-0.19l-2.343-2.344c-0.254-0.254-0.254-0.666,0-0.92
		s0.666-0.254,0.92,0l2.343,2.344c0.254,0.254,0.254,0.666,0,0.92C39.558,32.485,39.391,32.549,39.225,32.549z"/>
	<path fill="#FFFFFF" d="M42.381,24.933L42.381,24.933l-3.314-0.001c-0.359,0-0.65-0.291-0.65-0.65
		c0.001-0.359,0.291-0.65,0.65-0.65l0,0l3.314,0.001c0.359,0,0.65,0.291,0.65,0.65C43.03,24.642,42.74,24.933,42.381,24.933z"/>
	<path fill="#FFFFFF" d="M36.882,19.66c-0.166,0-0.333-0.063-0.46-0.19c-0.254-0.254-0.254-0.665,0-0.919l2.343-2.343
		c0.254-0.254,0.666-0.254,0.92,0s0.254,0.665,0,0.919l-2.343,2.343C37.215,19.596,37.048,19.66,36.882,19.66z"/>
	<path fill="#FFFFFF" d="M31.61,17.476c-0.359,0-0.65-0.291-0.65-0.65v-3.313c0-0.359,0.291-0.65,0.65-0.65s0.65,0.291,0.65,0.65
		v3.313C32.261,17.185,31.97,17.476,31.61,17.476z"/>
	<path fill="#FFFFFF" d="M26.337,19.66c-0.166,0-0.333-0.063-0.46-0.19l-2.343-2.343c-0.254-0.253-0.254-0.665,0-0.919
		s0.665-0.254,0.919,0l2.344,2.343c0.254,0.253,0.254,0.665,0,0.919C26.67,19.596,26.503,19.66,26.337,19.66z"/>
</g>
<g>
	<path fill="#FFFFFF" d="M31.857,29.15c-2.684,0-4.867-2.184-4.867-4.868c0-2.684,2.184-4.867,4.867-4.867
		c0.753,0,1.496,0.185,2.207,0.549c0.32,0.164,0.446,0.555,0.282,0.875c-0.162,0.319-0.555,0.446-0.874,0.282
		c-0.526-0.27-1.07-0.406-1.615-0.406c-1.967,0-3.566,1.601-3.566,3.567c0,1.967,1.6,3.567,3.566,3.567
		c0.545,0,1.089-0.137,1.615-0.405c0.32-0.164,0.712-0.036,0.874,0.282c0.164,0.319,0.038,0.711-0.282,0.874
		C33.354,28.965,32.61,29.15,31.857,29.15z"/>
</g>
</svg>
