<?xml version="1.0" encoding="utf-8"?>
<!-- Generator: Adobe Illustrator 17.1.0, SVG Export Plug-In . SVG Version: 6.00 Build 0)  -->
<!DOCTYPE svg PUBLIC "-//W3C//DTD SVG 1.1//EN" "http://www.w3.org/Graphics/SVG/1.1/DTD/svg11.dtd">
<svg version="1.1" xmlns="http://www.w3.org/2000/svg" xmlns:xlink="http://www.w3.org/1999/xlink" x="0px" y="0px"
	 viewBox="0 0 500 500" enable-background="new 0 0 500 500" xml:space="preserve">
<g id="Layer_2">
	<rect y="-1" width="500" height="502"/>
</g>
<g id="Layer_1">
	<g>
		<path fill="#BBBDBF" d="M21.274,428.854h0.962l4.147,9.165h-1.105l-1.066-2.405h-4.953l-1.079,2.405h-1.053L21.274,428.854z
			 M23.81,434.69l-2.067-4.642l-2.08,4.642H23.81z"/>
		<path fill="#BBBDBF" d="M34.482,429.867h-3.055v-0.949h7.15v0.949h-3.055v8.151h-1.04V429.867z"/>
		<path fill="#BBBDBF" d="M40.501,428.918h6.578v0.937h-5.551v3.106h4.966v0.937h-4.966v3.185h5.616v0.937h-6.643V428.918z"/>
		<path fill="#BBBDBF" d="M49.211,428.918h3.159c2.86,0,4.836,1.963,4.836,4.524v0.026c0,2.561-1.976,4.55-4.836,4.55h-3.159
			V428.918z M52.37,437.069c2.301,0,3.77-1.56,3.77-3.575v-0.025c0-2.016-1.469-3.602-3.77-3.602h-2.132v7.202H52.37z"/>
		<path fill="#BBBDBF" d="M59.468,428.918h1.027v9.101h-1.027V428.918z"/>
		<path fill="#BBBDBF" d="M62.757,433.494v-0.025c0-2.51,1.885-4.707,4.654-4.707s4.628,2.172,4.628,4.681v0.026
			c0,2.509-1.885,4.706-4.654,4.706S62.757,436.004,62.757,433.494z M70.973,433.494v-0.025c0-2.067-1.508-3.758-3.588-3.758
			s-3.562,1.664-3.562,3.731v0.026c0,2.066,1.508,3.757,3.588,3.757S70.973,435.562,70.973,433.494z"/>
		<path fill="#BBBDBF" d="M74.066,434.209v-5.291h1.027v5.227c0,1.963,1.04,3.068,2.782,3.068c1.677,0,2.743-1.015,2.743-3.004
			v-5.291h1.027v5.214c0,2.651-1.521,4.029-3.796,4.029C75.601,438.161,74.066,436.783,74.066,434.209z"/>
		<path fill="#BBBDBF" d="M83.478,436.692l0.637-0.754c0.949,0.858,1.859,1.287,3.12,1.287c1.222,0,2.028-0.65,2.028-1.547v-0.026
			c0-0.845-0.455-1.326-2.366-1.729c-2.093-0.455-3.055-1.132-3.055-2.627v-0.025c0-1.431,1.261-2.483,2.99-2.483
			c1.326,0,2.275,0.377,3.198,1.118l-0.598,0.793c-0.845-0.689-1.69-0.988-2.626-0.988c-1.183,0-1.937,0.65-1.937,1.47v0.025
			c0,0.858,0.468,1.339,2.47,1.769c2.028,0.441,2.964,1.183,2.964,2.574v0.025c0,1.561-1.3,2.574-3.107,2.574
			C85.753,438.148,84.57,437.668,83.478,436.692z"/>
		<path fill="#BBBDBF" d="M92.396,428.918h1.027v8.151h5.122v0.949h-6.149V428.918z"/>
		<path fill="#BBBDBF" d="M101.599,434.417l-3.783-5.499h1.248l3.068,4.551l3.094-4.551h1.196l-3.783,5.486v3.614h-1.04V434.417z"/>
		<path fill="#BBBDBF" d="M115.326,428.854h0.962l4.147,9.165h-1.105l-1.066-2.405h-4.953l-1.079,2.405h-1.053L115.326,428.854z
			 M117.861,434.69l-2.067-4.642l-2.08,4.642H117.861z"/>
		<path fill="#BBBDBF" d="M121.293,433.494v-0.025c0-2.574,1.924-4.707,4.602-4.707c1.651,0,2.639,0.586,3.549,1.443l-0.702,0.754
			c-0.767-0.728-1.625-1.248-2.86-1.248c-2.015,0-3.523,1.639-3.523,3.731v0.026c0,2.105,1.521,3.757,3.523,3.757
			c1.248,0,2.067-0.481,2.938-1.313l0.676,0.663c-0.949,0.962-1.989,1.6-3.64,1.6C123.23,438.175,121.293,436.107,121.293,433.494z"
			/>
		<path fill="#BBBDBF" d="M130.626,433.494v-0.025c0-2.574,1.924-4.707,4.603-4.707c1.651,0,2.639,0.586,3.549,1.443l-0.702,0.754
			c-0.767-0.728-1.625-1.248-2.86-1.248c-2.015,0-3.523,1.639-3.523,3.731v0.026c0,2.105,1.521,3.757,3.523,3.757
			c1.248,0,2.067-0.481,2.938-1.313l0.676,0.663c-0.949,0.962-1.989,1.6-3.64,1.6C132.563,438.175,130.626,436.107,130.626,433.494z
			"/>
		<path fill="#BBBDBF" d="M140.48,434.209v-5.291h1.027v5.227c0,1.963,1.04,3.068,2.782,3.068c1.677,0,2.743-1.015,2.743-3.004
			v-5.291h1.027v5.214c0,2.651-1.521,4.029-3.796,4.029C142.014,438.161,140.48,436.783,140.48,434.209z"/>
		<path fill="#BBBDBF" d="M150.49,428.918h3.913c1.118,0,2.015,0.338,2.587,0.91c0.442,0.442,0.702,1.079,0.702,1.794v0.026
			c0,1.508-1.04,2.392-2.47,2.652l2.795,3.718h-1.261l-2.639-3.536h-2.6v3.536h-1.027V428.918z M154.312,433.56
			c1.365,0,2.34-0.702,2.34-1.872v-0.026c0-1.118-0.858-1.794-2.327-1.794h-2.808v3.692H154.312z"/>
		<path fill="#BBBDBF" d="M163.256,428.854h0.962l4.147,9.165h-1.105l-1.066-2.405h-4.953l-1.079,2.405h-1.053L163.256,428.854z
			 M165.791,434.69l-2.067-4.642l-2.08,4.642H165.791z"/>
		<path fill="#BBBDBF" d="M171.393,429.867h-3.055v-0.949h7.15v0.949h-3.055v8.151h-1.04V429.867z"/>
		<path fill="#BBBDBF" d="M177.411,428.918h6.578v0.937h-5.551v3.106h4.966v0.937h-4.966v3.185h5.616v0.937h-6.643V428.918z"/>
		<path fill="#BBBDBF" d="M189.423,436.692l0.637-0.754c0.949,0.858,1.859,1.287,3.12,1.287c1.222,0,2.028-0.65,2.028-1.547v-0.026
			c0-0.845-0.455-1.326-2.366-1.729c-2.093-0.455-3.055-1.132-3.055-2.627v-0.025c0-1.431,1.261-2.483,2.99-2.483
			c1.326,0,2.275,0.377,3.198,1.118l-0.598,0.793c-0.845-0.689-1.69-0.988-2.626-0.988c-1.183,0-1.937,0.65-1.937,1.47v0.025
			c0,0.858,0.468,1.339,2.47,1.769c2.028,0.441,2.964,1.183,2.964,2.574v0.025c0,1.561-1.3,2.574-3.107,2.574
			C191.698,438.148,190.515,437.668,189.423,436.692z"/>
		<path fill="#BBBDBF" d="M197.938,433.494v-0.025c0-2.574,1.924-4.707,4.603-4.707c1.651,0,2.639,0.586,3.549,1.443l-0.702,0.754
			c-0.767-0.728-1.625-1.248-2.86-1.248c-2.015,0-3.523,1.639-3.523,3.731v0.026c0,2.105,1.521,3.757,3.523,3.757
			c1.248,0,2.067-0.481,2.938-1.313l0.676,0.663c-0.949,0.962-1.989,1.6-3.64,1.6C199.875,438.175,197.938,436.107,197.938,433.494z
			"/>
		<path fill="#BBBDBF" d="M211.302,428.854h0.962l4.147,9.165h-1.105l-1.066-2.405h-4.953l-1.079,2.405h-1.053L211.302,428.854z
			 M213.837,434.69l-2.067-4.642l-2.08,4.642H213.837z"/>
		<path fill="#BBBDBF" d="M218.205,428.918h1.027v8.151h5.122v0.949h-6.149V428.918z"/>
		<path fill="#BBBDBF" d="M226.251,428.918h6.578v0.937h-5.551v3.106h4.966v0.937h-4.966v3.185h5.616v0.937h-6.643V428.918z"/>
		<path fill="#BBBDBF" d="M238.861,428.918h1.04l3.315,4.967l3.315-4.967h1.04v9.101h-1.027v-7.371l-3.315,4.875h-0.052
			l-3.315-4.862v7.358h-1.001V428.918z"/>
		<path fill="#BBBDBF" d="M249.742,433.494v-0.025c0-2.51,1.886-4.707,4.654-4.707c2.77,0,4.628,2.172,4.628,4.681v0.026
			c0,2.509-1.885,4.706-4.653,4.706C251.602,438.175,249.742,436.004,249.742,433.494z M257.959,433.494v-0.025
			c0-2.067-1.508-3.758-3.588-3.758s-3.562,1.664-3.562,3.731v0.026c0,2.066,1.508,3.757,3.588,3.757
			S257.959,435.562,257.959,433.494z"/>
		<path fill="#BBBDBF" d="M261.195,428.918h3.159c2.86,0,4.836,1.963,4.836,4.524v0.026c0,2.561-1.976,4.55-4.836,4.55h-3.159
			V428.918z M264.354,437.069c2.301,0,3.771-1.56,3.771-3.575v-0.025c0-2.016-1.47-3.602-3.771-3.602h-2.132v7.202H264.354z"/>
		<path fill="#BBBDBF" d="M271.361,428.918h6.578v0.937h-5.551v3.106h4.966v0.937h-4.966v3.185h5.616v0.937h-6.644V428.918z"/>
		<path fill="#BBBDBF" d="M280.071,428.918h1.027v8.151h5.122v0.949h-6.149V428.918z"/>
		<path fill="#BBBDBF" d="M291.614,433.494v-0.025c0-2.51,1.886-4.707,4.654-4.707c2.77,0,4.628,2.172,4.628,4.681v0.026
			c0,2.509-1.885,4.706-4.654,4.706C293.474,438.175,291.614,436.004,291.614,433.494z M299.831,433.494v-0.025
			c0-2.067-1.509-3.758-3.589-3.758s-3.562,1.664-3.562,3.731v0.026c0,2.066,1.508,3.757,3.588,3.757
			S299.831,435.562,299.831,433.494z"/>
		<path fill="#BBBDBF" d="M303.067,428.918h6.539v0.949h-5.512v3.25h4.927v0.937h-4.927v3.965h-1.027V428.918z"/>
		<path fill="#BBBDBF" d="M317.899,429.867h-3.056v-0.949h7.15v0.949h-3.055v8.151h-1.04V429.867z"/>
		<path fill="#BBBDBF" d="M323.918,428.918h1.027v4.043h5.252v-4.043h1.027v9.101h-1.027v-4.095h-5.252v4.095h-1.027V428.918z"/>
		<path fill="#BBBDBF" d="M333.798,428.918h6.578v0.937h-5.551v3.106h4.966v0.937h-4.966v3.185h5.616v0.937h-6.644V428.918z"/>
		<path fill="#BBBDBF" d="M345.81,436.692l0.637-0.754c0.949,0.858,1.859,1.287,3.12,1.287c1.222,0,2.028-0.65,2.028-1.547v-0.026
			c0-0.845-0.455-1.326-2.366-1.729c-2.094-0.455-3.056-1.132-3.056-2.627v-0.025c0-1.431,1.262-2.483,2.99-2.483
			c1.326,0,2.275,0.377,3.198,1.118l-0.598,0.793c-0.846-0.689-1.69-0.988-2.626-0.988c-1.184,0-1.938,0.65-1.938,1.47v0.025
			c0,0.858,0.468,1.339,2.47,1.769c2.028,0.441,2.965,1.183,2.965,2.574v0.025c0,1.561-1.301,2.574-3.107,2.574
			C348.084,438.148,346.901,437.668,345.81,436.692z"/>
		<path fill="#BBBDBF" d="M354.324,433.494v-0.025c0-2.51,1.886-4.707,4.654-4.707c2.77,0,4.628,2.172,4.628,4.681v0.026
			c0,2.509-1.885,4.706-4.653,4.706C356.184,438.175,354.324,436.004,354.324,433.494z M362.541,433.494v-0.025
			c0-2.067-1.508-3.758-3.588-3.758s-3.562,1.664-3.562,3.731v0.026c0,2.066,1.508,3.757,3.588,3.757
			S362.541,435.562,362.541,433.494z"/>
		<path fill="#BBBDBF" d="M365.777,428.918h1.027v8.151h5.122v0.949h-6.149V428.918z"/>
		<path fill="#BBBDBF" d="M377.191,428.854h0.962l4.147,9.165h-1.105l-1.066-2.405h-4.953l-1.078,2.405h-1.054L377.191,428.854z
			 M379.727,434.69l-2.067-4.642l-2.08,4.642H379.727z"/>
		<path fill="#BBBDBF" d="M384.094,428.918h3.913c1.118,0,2.015,0.338,2.587,0.91c0.442,0.442,0.702,1.079,0.702,1.794v0.026
			c0,1.508-1.04,2.392-2.47,2.652l2.795,3.718h-1.261l-2.64-3.536h-2.6v3.536h-1.027V428.918z M387.916,433.56
			c1.365,0,2.34-0.702,2.34-1.872v-0.026c0-1.118-0.858-1.794-2.327-1.794h-2.808v3.692H387.916z"/>
		<path fill="#BBBDBF" d="M396.794,436.692l0.637-0.754c0.949,0.858,1.859,1.287,3.12,1.287c1.222,0,2.028-0.65,2.028-1.547v-0.026
			c0-0.845-0.455-1.326-2.366-1.729c-2.094-0.455-3.056-1.132-3.056-2.627v-0.025c0-1.431,1.262-2.483,2.99-2.483
			c1.326,0,2.275,0.377,3.198,1.118l-0.598,0.793c-0.846-0.689-1.69-0.988-2.626-0.988c-1.184,0-1.938,0.65-1.938,1.47v0.025
			c0,0.858,0.468,1.339,2.47,1.769c2.028,0.441,2.965,1.183,2.965,2.574v0.025c0,1.561-1.301,2.574-3.107,2.574
			C399.068,438.148,397.886,437.668,396.794,436.692z"/>
		<path fill="#BBBDBF" d="M408.168,434.417l-3.783-5.499h1.248l3.068,4.551l3.095-4.551h1.195l-3.783,5.486v3.614h-1.04V434.417z"/>
		<path fill="#BBBDBF" d="M413.574,436.692l0.637-0.754c0.949,0.858,1.859,1.287,3.12,1.287c1.222,0,2.028-0.65,2.028-1.547v-0.026
			c0-0.845-0.455-1.326-2.366-1.729c-2.094-0.455-3.056-1.132-3.056-2.627v-0.025c0-1.431,1.262-2.483,2.99-2.483
			c1.326,0,2.275,0.377,3.198,1.118l-0.598,0.793c-0.846-0.689-1.69-0.988-2.626-0.988c-1.184,0-1.938,0.65-1.938,1.47v0.025
			c0,0.858,0.468,1.339,2.47,1.769c2.028,0.441,2.965,1.183,2.965,2.574v0.025c0,1.561-1.301,2.574-3.107,2.574
			C415.849,438.148,414.666,437.668,413.574,436.692z"/>
		<path fill="#BBBDBF" d="M424.701,429.867h-3.056v-0.949h7.15v0.949h-3.055v8.151h-1.04V429.867z"/>
		<path fill="#BBBDBF" d="M430.72,428.918h6.578v0.937h-5.551v3.106h4.966v0.937h-4.966v3.185h5.616v0.937h-6.644V428.918z"/>
		<path fill="#BBBDBF" d="M439.43,428.918h1.04l3.315,4.967l3.314-4.967h1.04v9.101h-1.026v-7.371l-3.315,4.875h-0.052l-3.315-4.862
			v7.358h-1.001V428.918z"/>
	</g>
	<g>
		<path fill="#92FCFF" d="M17.256,474.852l0.587-0.695c0.875,0.792,1.715,1.188,2.878,1.188c1.127,0,1.871-0.6,1.871-1.428v-0.023
			c0-0.779-0.42-1.224-2.183-1.596c-1.931-0.419-2.818-1.043-2.818-2.422v-0.024c0-1.319,1.163-2.291,2.758-2.291
			c1.223,0,2.099,0.348,2.95,1.031l-0.552,0.732c-0.779-0.636-1.559-0.912-2.422-0.912c-1.091,0-1.787,0.6-1.787,1.355v0.024
			c0,0.791,0.432,1.235,2.279,1.631c1.871,0.407,2.734,1.091,2.734,2.375v0.023c0,1.439-1.199,2.375-2.866,2.375
			C19.354,476.195,18.263,475.751,17.256,474.852z"/>
		<path fill="#92FCFF" d="M24.947,473.005v-0.024c0-1.751,1.368-3.237,3.178-3.237c1.176,0,1.907,0.491,2.483,1.103l-0.612,0.648
			c-0.492-0.517-1.043-0.936-1.883-0.936c-1.259,0-2.219,1.067-2.219,2.398v0.023c0,1.344,0.983,2.411,2.279,2.411
			c0.792,0,1.403-0.396,1.895-0.924l0.587,0.552c-0.624,0.696-1.367,1.199-2.531,1.199
			C26.315,476.219,24.947,474.744,24.947,473.005z"/>
		<path fill="#92FCFF" d="M32.183,469.875h0.924v1.619c0.456-1.032,1.355-1.775,2.53-1.728v0.995h-0.072
			c-1.355,0-2.458,0.972-2.458,2.843v2.471h-0.924V469.875z"/>
		<path fill="#92FCFF" d="M36.393,473.005v-0.024c0-1.751,1.368-3.237,3.238-3.237c1.859,0,3.227,1.463,3.227,3.214v0.023
			c0,1.751-1.379,3.238-3.25,3.238C37.748,476.219,36.393,474.756,36.393,473.005z M41.91,473.005v-0.024
			c0-1.331-0.996-2.422-2.303-2.422c-1.343,0-2.267,1.091-2.267,2.398v0.023c0,1.332,0.983,2.411,2.291,2.411
			C40.974,475.392,41.91,474.312,41.91,473.005z"/>
		<path fill="#92FCFF" d="M44.612,467.32h0.924v8.755h-0.924V467.32z"/>
		<path fill="#92FCFF" d="M47.768,467.32h0.924v8.755h-0.924V467.32z"/>
		<path fill="#92FCFF" d="M54.764,474.432v-3.741H53.9v-0.815h0.864v-1.871h0.923v1.871h1.967v0.815h-1.967v3.622
			c0,0.755,0.42,1.031,1.043,1.031c0.312,0,0.576-0.061,0.899-0.216v0.791c-0.324,0.168-0.671,0.265-1.115,0.265
			C55.519,476.184,54.764,475.691,54.764,474.432z"/>
		<path fill="#92FCFF" d="M58.722,473.005v-0.024c0-1.751,1.368-3.237,3.238-3.237c1.859,0,3.227,1.463,3.227,3.214v0.023
			c0,1.751-1.379,3.238-3.25,3.238C60.077,476.219,58.722,474.756,58.722,473.005z M64.239,473.005v-0.024
			c0-1.331-0.996-2.422-2.303-2.422c-1.343,0-2.267,1.091-2.267,2.398v0.023c0,1.332,0.983,2.411,2.291,2.411
			C63.303,475.392,64.239,474.312,64.239,473.005z"/>
		<path fill="#92FCFF" d="M73.192,475.416c0.852,0,1.451-0.349,1.955-0.876l0.576,0.516c-0.624,0.695-1.379,1.163-2.555,1.163
			c-1.703,0-3.094-1.307-3.094-3.238c0-1.799,1.259-3.237,2.975-3.237c1.835,0,2.89,1.463,2.89,3.286c0,0.084,0,0.18-0.012,0.323
			h-4.917C71.141,474.66,72.1,475.416,73.192,475.416z M75.003,472.609c-0.108-1.128-0.756-2.087-1.979-2.087
			c-1.067,0-1.883,0.888-2.015,2.087H75.003z"/>
		<path fill="#92FCFF" d="M79.072,472.921l-2.339-3.046h1.056l1.835,2.398l1.835-2.398h1.031l-2.351,3.021l2.446,3.179h-1.067
			l-1.919-2.53l-1.931,2.53h-1.031L79.072,472.921z"/>
		<path fill="#92FCFF" d="M84.088,469.875h0.924v1.247c0.504-0.744,1.235-1.379,2.375-1.379c1.486,0,2.962,1.175,2.962,3.214v0.023
			c0,2.027-1.463,3.227-2.962,3.227c-1.151,0-1.896-0.624-2.375-1.319v3.106h-0.924V469.875z M89.402,472.993v-0.024
			c0-1.463-1.008-2.398-2.183-2.398c-1.151,0-2.243,0.972-2.243,2.387v0.023c0,1.439,1.092,2.399,2.243,2.399
			C88.418,475.38,89.402,474.492,89.402,472.993z"/>
		<path fill="#92FCFF" d="M92.14,467.32h0.924v8.755H92.14V467.32z"/>
		<path fill="#92FCFF" d="M94.829,473.005v-0.024c0-1.751,1.367-3.237,3.238-3.237c1.859,0,3.227,1.463,3.227,3.214v0.023
			c0,1.751-1.38,3.238-3.25,3.238C96.184,476.219,94.829,474.756,94.829,473.005z M100.346,473.005v-0.024
			c0-1.331-0.996-2.422-2.303-2.422c-1.344,0-2.268,1.091-2.268,2.398v0.023c0,1.332,0.983,2.411,2.291,2.411
			C99.411,475.392,100.346,474.312,100.346,473.005z"/>
		<path fill="#92FCFF" d="M102.964,469.875h0.924v1.619c0.456-1.032,1.355-1.775,2.53-1.728v0.995h-0.072
			c-1.354,0-2.458,0.972-2.458,2.843v2.471h-0.924V469.875z"/>
		<path fill="#92FCFF" d="M110.292,475.416c0.852,0,1.451-0.349,1.955-0.876l0.576,0.516c-0.624,0.695-1.38,1.163-2.555,1.163
			c-1.703,0-3.095-1.307-3.095-3.238c0-1.799,1.26-3.237,2.975-3.237c1.835,0,2.891,1.463,2.891,3.286c0,0.084,0,0.18-0.013,0.323
			h-4.917C108.242,474.66,109.202,475.416,110.292,475.416z M112.104,472.609c-0.108-1.128-0.756-2.087-1.979-2.087
			c-1.067,0-1.883,0.888-2.015,2.087H112.104z"/>
	</g>
	<rect x="17.924" y="321.455" fill="#FFFFFF" width="80.54" height="80.54"/>
	<path fill="#FFFFFF" d="M136.769,321.455h28.388c19.733,0,31.042,9.116,31.042,24.233v0.232c0,15.694-12.002,24.579-31.504,24.579
		h-25.387v31.734h-2.539V321.455z M164.695,368.191c17.886,0,28.964-7.847,28.964-22.156v-0.23
		c0-13.732-10.616-22.041-28.733-22.041h-25.618v44.427H164.695z"/>
	<path fill="#FFFFFF" d="M214.771,321.455h2.539v80.778h-2.539V321.455z"/>
	<path fill="#FFFFFF" d="M267.273,361.153l-31.734-39.697h3l30.35,38.081l30.234-38.081h3.116l-31.849,39.697l33.004,41.081h-3.001
		l-31.503-39.466l-31.389,39.466h-3.116L267.273,361.153z"/>
	<path fill="#FFFFFF" d="M319.657,321.455h56.429v2.308h-53.89v36.696h48.929v2.308h-48.929v37.157h54.468v2.308h-57.006V321.455z"
		/>
	<path fill="#FFFFFF" d="M395.927,321.455h2.54v78.47h49.62v2.308h-52.16V321.455z"/>
	<path d="M57.797,337.918l-11.535,3.584l-1.66-5.593l14.943-5.156h5.068v61.606h-6.816V337.918z"/>
	<path fill="#FFFFFF" d="M17.924,116.77H20.5l37.415,53.239L95.33,116.77h2.453v85.87h-2.699v-81.332l-37.17,52.995h-0.123
		l-37.17-52.995v81.332h-2.699V116.77z"/>
	<path fill="#FFFFFF" d="M119.486,159.828v-0.245c0-23.43,16.684-44.284,42.69-44.284c26.007,0,42.69,20.855,42.69,44.284v0.245
		c0,23.431-16.683,44.285-42.69,44.285C136.17,204.113,119.486,183.258,119.486,159.828z M202.167,159.951v-0.245
		c0-21.958-16.193-41.954-40.114-41.954c-24.044,0-39.868,19.628-39.868,41.708v0.245c0,21.958,16.192,41.954,40.114,41.954
		C186.343,201.659,202.167,182.031,202.167,159.951z"/>
	<path fill="#FFFFFF" d="M222.766,159.828v-0.245c0-23.43,16.684-44.284,42.69-44.284c26.007,0,42.69,20.855,42.69,44.284v0.245
		c0,23.431-16.683,44.285-42.69,44.285C239.45,204.113,222.766,183.258,222.766,159.828z M305.448,159.951v-0.245
		c0-21.958-16.193-41.954-40.114-41.954c-24.044,0-39.868,19.628-39.868,41.708v0.245c0,21.958,16.192,41.954,40.114,41.954
		C289.623,201.659,305.448,182.031,305.448,159.951z"/>
	<path fill="#FFFFFF" d="M329.85,116.77h2.331l65.261,81.454V116.77h2.576v85.87h-2.331l-65.261-81.454v81.454h-2.576V116.77z"/>
	<circle fill="#FFFFFF" cx="265.456" cy="159.705" r="42.935"/>
	<path fill="#B5B5B5" d="M19.905,23.162h1.745v55.541h-1.745V23.162z"/>
	<path fill="#B5B5B5" d="M38.707,23.162h38.403v1.587H40.452v25.787h33.245v1.587H40.452v26.58h-1.745V23.162z"/>
	<path fill="#B5B5B5" d="M124.392,24.749h-20.074v-1.587h41.893v1.587h-20.074v53.954h-1.746V24.749z"/>
	<path fill="#B5B5B5" d="M156.6,23.162h1.745v26.739h39.672V23.162h1.746v55.541h-1.746V51.488h-39.672v27.215H156.6V23.162z"/>
	<path fill="#B5B5B5" d="M216.262,23.162h38.799v1.587h-37.054V49.98h33.642v1.587h-33.642v25.549h37.45v1.587h-39.196V23.162z"/>
	<g>
		<g>
			<line fill="none" stroke="#92FCFF" stroke-miterlimit="10" x1="448.415" y1="472.174" x2="119.486" y2="472.174"/>
			<g>
				<polygon fill="#92FCFF" points="445.102,468.084 444.42,468.816 448.032,472.173 444.42,475.53 445.102,476.262 449.5,472.173 
									"/>
			</g>
		</g>
	</g>
	<g>
		<path fill="#B5B5B5" d="M17.52,237.646h1.532l14.66,44.646l14.193-44.779h1.133l14.26,44.846l14.66-44.712h1.466l-15.526,46.978
			h-1.266l-14.193-44.379l-14.126,44.379h-1.266L17.52,237.646z"/>
		<path fill="#B5B5B5" d="M89.287,237.646h32.584v1.333H90.753v21.19h28.253v1.333H90.753v21.456h31.452v1.333H89.287V237.646z"/>
		<path fill="#B5B5B5" d="M133.333,237.646h19.058c6.063,0,10.528,1.533,13.394,4.398c2.132,2.132,3.332,5.064,3.332,8.663v0.133
			c0,7.863-6.264,12.527-15.259,13.061l15.526,20.391h-1.799l-15.459-20.324h-17.325v20.324h-1.466V237.646z M151.658,262.635
			c10.795,0,15.992-5.131,15.992-11.729v-0.133c0-7.396-5.73-11.794-15.393-11.794h-17.458v23.656H151.658z"/>
		<path fill="#B5B5B5" d="M181.578,237.646h32.584v1.333h-31.119v21.19h28.253v1.333h-28.253v21.456h31.452v1.333h-32.917V237.646z"
			/>
		<path fill="#B5B5B5" d="M242.216,261.035v-0.134c0-12.727,9.062-24.055,23.189-24.055s23.189,11.328,23.189,24.055v0.134
			c0,12.728-9.062,24.056-23.189,24.056S242.216,273.763,242.216,261.035z M287.129,261.102v-0.133
			c0-11.928-8.796-22.79-21.79-22.79c-13.061,0-21.656,10.662-21.656,22.656v0.134c0,11.928,8.796,22.789,21.789,22.789
			C278.532,283.758,287.129,273.097,287.129,261.102z"/>
		<path fill="#B5B5B5" d="M300.39,237.646h1.267l35.45,44.247v-44.247h1.398v46.645h-1.266l-35.45-44.246v44.246h-1.399V237.646z"/>
		<path fill="#B5B5B5" d="M352.365,237.646h1.467v45.312h28.652v1.333h-30.119V237.646z"/>
		<path fill="#B5B5B5" d="M396.871,264.767l-19.725-27.121h1.732l18.791,25.855l18.592-25.855h1.732l-19.657,27.121v19.524h-1.466
			V264.767z"/>
	</g>
</g>
</svg>
