<?xml version="1.0" encoding="utf-8"?>
<!-- Generator: Adobe Illustrator 17.0.0, SVG Export Plug-In . SVG Version: 6.00 Build 0)  -->
<!DOCTYPE svg PUBLIC "-//W3C//DTD SVG 1.1//EN" "http://www.w3.org/Graphics/SVG/1.1/DTD/svg11.dtd">
<svg version="1.1" id="Layer_1" xmlns="http://www.w3.org/2000/svg" xmlns:xlink="http://www.w3.org/1999/xlink" x="0px" y="0px"
	 width="65px" height="34px" viewBox="0 0 65 34" enable-background="new 0 0 65 34" xml:space="preserve">
<circle fill="#F9D293" cx="32.5" cy="17" r="17"/>
<path fill="#C6BFB5" d="M32.5,15.536c-17.535,0-31.75,0.656-31.75,1.464s14.215,1.938,31.75,1.938S64.25,17.809,64.25,17
	S50.035,15.536,32.5,15.536z M32.5,17.509c-13.349,0-24.171-0.352-24.171-0.786s10.822-0.786,24.171-0.786
	c13.349,0,24.171,0.352,24.171,0.786S45.849,17.509,32.5,17.509z"/>
<path fill="#F9D293" d="M49.5,17c0,0.173-34,0.581-34,0c0-9.389,7.611-17,17-17S49.5,7.611,49.5,17z"/>
</svg>
