<?xml version="1.0" encoding="utf-8"?>
<!-- Generator: Adobe Illustrator 17.0.2, SVG Export Plug-In . SVG Version: 6.00 Build 0)  -->
<!DOCTYPE svg PUBLIC "-//W3C//DTD SVG 1.1//EN" "http://www.w3.org/Graphics/SVG/1.1/DTD/svg11.dtd">
<svg version="1.1" id="Layer_1" xmlns="http://www.w3.org/2000/svg" xmlns:xlink="http://www.w3.org/1999/xlink" x="0px" y="0px"
	 width="500px" height="500px" viewBox="0 0 500 500" enable-background="new 0 0 500 500" xml:space="preserve">
<rect x="113.453" y="201.067" fill="#FFFFFF" width="0.938" height="0.907"/>
<g>
	<g>
		<rect x="69.446" y="201.375" fill="#A4DCE8" width="29.211" height="0.5"/>
		<g>
			<polygon fill="#A4DCE8" points="95.344,197.535 94.662,198.268 98.273,201.624 94.662,204.981 95.344,205.714 99.742,201.624 			
				"/>
		</g>
	</g>
</g>
<g>
	<g>
		<rect x="252.328" y="201.322" fill="#A4DCE8" width="30.573" height="0.5"/>
		<g>
			<polygon fill="#A4DCE8" points="255.642,205.662 256.324,204.929 252.712,201.573 256.324,198.215 255.642,197.483 
				251.244,201.573 			"/>
		</g>
	</g>
</g>
<line fill="none" stroke="#FFFFFF" stroke-width="0.75" stroke-miterlimit="10" x1="42.136" y1="291.834" x2="42.136" y2="324.834"/>
<g>
	<g>
		<polyline fill="none" stroke="#FFFFFF" stroke-width="0.5" stroke-miterlimit="10" points="70.636,303.834 70.636,345.803 
			77.038,345.803 		"/>
		<g>
			<circle fill="#FFFFFF" cx="76.944" cy="345.803" r="1.88"/>
		</g>
	</g>
</g>
<line fill="none" stroke="#FFFFFF" stroke-width="0.5" stroke-miterlimit="10" x1="56.386" y1="303.834" x2="56.386" y2="324.834"/>
<line fill="none" stroke="#FFFFFF" stroke-width="0.5" stroke-miterlimit="10" x1="98.511" y1="303.834" x2="98.511" y2="324.834"/>
<line fill="none" stroke="#FFFFFF" stroke-width="0.5" stroke-miterlimit="10" x1="84.824" y1="303.834" x2="84.824" y2="324.834"/>
<line fill="none" stroke="#FFFFFF" stroke-width="0.5" stroke-miterlimit="10" x1="114.486" y1="303.834" x2="114.486" y2="324.834"/>
<line fill="none" stroke="#FFFFFF" stroke-width="0.5" stroke-miterlimit="10" x1="128.299" y1="303.834" x2="128.299" y2="324.834"/>
<line fill="none" stroke="#FFFFFF" stroke-width="0.5" stroke-miterlimit="10" x1="157.178" y1="303.834" x2="157.178" y2="324.834"/>
<line fill="none" stroke="#FFFFFF" stroke-width="0.5" stroke-miterlimit="10" x1="143.511" y1="303.834" x2="143.511" y2="324.834"/>
<line fill="none" stroke="#FFFFFF" stroke-width="0.75" stroke-miterlimit="10" x1="185.511" y1="303.834" x2="185.511" y2="324.834"/>
<line fill="none" stroke="#FFFFFF" stroke-width="0.5" stroke-miterlimit="10" x1="171.365" y1="303.834" x2="171.365" y2="324.834"/>
<line fill="none" stroke="#FFFFFF" stroke-width="0.5" stroke-miterlimit="10" x1="201.694" y1="303.834" x2="201.694" y2="324.834"/>
<line fill="none" stroke="#FFFFFF" stroke-width="0.5" stroke-miterlimit="10" x1="229.486" y1="303.834" x2="229.486" y2="324.834"/>
<line fill="none" stroke="#FFFFFF" stroke-width="0.5" stroke-miterlimit="10" x1="214.84" y1="303.834" x2="214.84" y2="324.834"/>
<line fill="none" stroke="#FFFFFF" stroke-width="0.5" stroke-miterlimit="10" x1="243.236" y1="303.834" x2="243.236" y2="324.834"/>
<line fill="none" stroke="#FFFFFF" stroke-width="0.5" stroke-miterlimit="10" x1="271.569" y1="303.834" x2="271.569" y2="324.834"/>
<line fill="none" stroke="#FFFFFF" stroke-width="0.5" stroke-miterlimit="10" x1="257.424" y1="303.834" x2="257.424" y2="324.834"/>
<line fill="none" stroke="#FFFFFF" stroke-width="0.5" stroke-miterlimit="10" x1="287.399" y1="303.834" x2="287.399" y2="324.834"/>
<line fill="none" stroke="#FFFFFF" stroke-width="0.5" stroke-miterlimit="10" x1="301.565" y1="303.834" x2="301.565" y2="324.834"/>
<line fill="none" stroke="#FFFFFF" stroke-width="0.5" stroke-miterlimit="10" x1="316.528" y1="303.834" x2="316.528" y2="324.834"/>
<g>
	<g>
		<polyline fill="none" stroke="#FFFFFF" stroke-width="0.75" stroke-miterlimit="10" points="331.386,291.834 331.386,345.803 
			339.314,345.803 		"/>
		<g>
			<circle fill="#FFFFFF" cx="339.209" cy="345.803" r="2.115"/>
		</g>
	</g>
</g>
<g enable-background="new    ">
	<path fill="#A4DCE8" d="M24.015,196.196l-1.891,0.645l-0.196-0.574l2.241-0.826h0.56v9.875h-0.714V196.196z"/>
	<path fill="#A4DCE8" d="M31.7,198.171h0.687v1.597c0.616-0.938,1.526-1.765,2.941-1.765c1.723,0,3.474,1.387,3.474,3.712v0.027
		c0,2.325-1.751,3.74-3.474,3.74c-1.429,0-2.354-0.812-2.941-1.709v3.782H31.7V198.171z M38.059,201.771v-0.028
		c0-1.877-1.303-3.081-2.802-3.081c-1.484,0-2.913,1.246-2.913,3.067v0.028c0,1.835,1.429,3.067,2.913,3.067
		C36.812,204.825,38.059,203.69,38.059,201.771z"/>
	<path fill="#A4DCE8" d="M40.954,195.37h0.854v0.938h-0.854V195.37z M41.038,198.171h0.687v7.144h-0.687V198.171z"/>
	<path fill="#A4DCE8" d="M47.101,202.135l-2.521,3.18h-0.827l2.914-3.642l-2.802-3.502h0.854l2.396,3.025l2.423-3.025h0.827
		l-2.815,3.487l2.927,3.656h-0.854L47.101,202.135z"/>
	<path fill="#A4DCE8" d="M51.423,201.757v-0.028c0-2.073,1.457-3.726,3.39-3.726c2.003,0,3.278,1.624,3.278,3.739
		c0,0.126,0,0.168-0.015,0.28h-5.925c0.126,1.779,1.4,2.815,2.802,2.815c1.106,0,1.862-0.49,2.451-1.12l0.476,0.42
		c-0.728,0.784-1.582,1.345-2.955,1.345C53.048,205.483,51.423,203.984,51.423,201.757z M57.348,201.407
		c-0.098-1.442-0.924-2.773-2.563-2.773c-1.414,0-2.507,1.19-2.633,2.773H57.348z"/>
	<path fill="#A4DCE8" d="M60.187,195.089h0.687v10.226h-0.687V195.089z"/>
</g>
<g enable-background="new    ">
	<path fill="#A4DCE8" d="M297.982,179.845h-3.418v-0.673h7.563v0.673h-3.417v9.133h-0.729V179.845z"/>
	<path fill="#A4DCE8" d="M303.901,178.752h0.687v4.412c0.477-0.84,1.275-1.498,2.578-1.498c1.807,0,2.857,1.232,2.857,2.941v4.37
		h-0.687v-4.244c0-1.471-0.826-2.438-2.27-2.438c-1.4,0-2.479,1.064-2.479,2.55v4.132h-0.687V178.752z"/>
	<path fill="#A4DCE8" d="M311.993,185.42v-0.028c0-2.073,1.457-3.726,3.39-3.726c2.003,0,3.278,1.624,3.278,3.739
		c0,0.126,0,0.168-0.015,0.28h-5.925c0.126,1.779,1.4,2.815,2.802,2.815c1.106,0,1.862-0.49,2.451-1.12l0.476,0.42
		c-0.728,0.784-1.582,1.345-2.955,1.345C313.618,189.146,311.993,187.647,311.993,185.42z M317.918,185.07
		c-0.098-1.442-0.924-2.773-2.563-2.773c-1.414,0-2.507,1.19-2.633,2.773H317.918z"/>
	<path fill="#A4DCE8" d="M324.397,185.434v-0.028c0-2.325,1.751-3.739,3.474-3.739c1.429,0,2.354,0.812,2.941,1.708v-4.622h0.687
		v10.226h-0.687v-1.597c-0.616,0.938-1.526,1.765-2.941,1.765C326.148,189.146,324.397,187.759,324.397,185.434z M330.854,185.42
		v-0.028c0-1.835-1.429-3.067-2.913-3.067c-1.556,0-2.802,1.135-2.802,3.054v0.027c0,1.877,1.303,3.082,2.802,3.082
		C329.426,188.488,330.854,187.241,330.854,185.42z"/>
	<path fill="#A4DCE8" d="M334.113,179.033h0.854v0.938h-0.854V179.033z M334.197,181.834h0.687v7.144h-0.687V181.834z"/>
	<path fill="#A4DCE8" d="M336.997,186.905v-0.028c0-1.484,1.274-2.325,3.123-2.325c0.995,0,1.681,0.126,2.367,0.309v-0.309
		c0-1.442-0.882-2.185-2.353-2.185c-0.869,0-1.583,0.238-2.241,0.574l-0.253-0.603c0.785-0.364,1.556-0.616,2.536-0.616
		c0.966,0,1.736,0.266,2.255,0.784c0.477,0.477,0.729,1.135,0.729,2.018v4.454h-0.673v-1.19c-0.49,0.687-1.372,1.358-2.731,1.358
		C338.426,189.146,336.997,188.39,336.997,186.905z M342.502,186.302v-0.812c-0.603-0.153-1.401-0.322-2.424-0.322
		c-1.513,0-2.354,0.673-2.354,1.667v0.028c0,1.037,0.98,1.639,2.073,1.639C341.255,188.501,342.502,187.605,342.502,186.302z"/>
	<path fill="#A4DCE8" d="M345.621,181.834h0.687v1.274c0.462-0.742,1.106-1.442,2.381-1.442c1.247,0,2.018,0.714,2.409,1.54
		c0.463-0.798,1.233-1.54,2.578-1.54c1.694,0,2.745,1.19,2.745,2.983v4.328h-0.687v-4.244c0-1.541-0.798-2.438-2.115-2.438
		c-1.204,0-2.255,0.925-2.255,2.521v4.16h-0.687v-4.286c0-1.485-0.812-2.396-2.087-2.396s-2.283,1.121-2.283,2.563v4.118h-0.687
		V181.834z"/>
	<path fill="#A4DCE8" d="M358.445,185.42v-0.028c0-2.073,1.457-3.726,3.39-3.726c2.003,0,3.278,1.624,3.278,3.739
		c0,0.126,0,0.168-0.015,0.28h-5.925c0.126,1.779,1.4,2.815,2.802,2.815c1.106,0,1.862-0.49,2.451-1.12l0.476,0.42
		c-0.728,0.784-1.582,1.345-2.955,1.345C360.07,189.146,358.445,187.647,358.445,185.42z M364.37,185.07
		c-0.098-1.442-0.924-2.773-2.563-2.773c-1.414,0-2.507,1.19-2.633,2.773H364.37z"/>
	<path fill="#A4DCE8" d="M367.489,187.143v-4.679h-1.036v-0.63h1.036v-2.283h0.687v2.283h2.508v0.63h-2.508v4.608
		c0,1.022,0.603,1.387,1.429,1.387c0.351,0,0.645-0.069,1.051-0.252v0.645c-0.364,0.168-0.715,0.252-1.163,0.252
		C368.386,189.104,367.489,188.501,367.489,187.143z"/>
	<path fill="#A4DCE8" d="M372.009,185.42v-0.028c0-2.073,1.457-3.726,3.39-3.726c2.003,0,3.278,1.624,3.278,3.739
		c0,0.126,0,0.168-0.015,0.28h-5.925c0.126,1.779,1.4,2.815,2.802,2.815c1.106,0,1.862-0.49,2.451-1.12l0.476,0.42
		c-0.728,0.784-1.582,1.345-2.955,1.345C373.634,189.146,372.009,187.647,372.009,185.42z M377.934,185.07
		c-0.098-1.442-0.924-2.773-2.563-2.773c-1.414,0-2.507,1.19-2.633,2.773H377.934z"/>
	<path fill="#A4DCE8" d="M380.675,181.834h0.687v2.031c0.561-1.275,1.751-2.199,3.165-2.144v0.756h-0.069
		c-1.653,0-3.096,1.247-3.096,3.572v2.928h-0.687V181.834z"/>
	<path fill="#A4DCE8" d="M389.984,185.434v-0.028c0-2.003,1.555-3.739,3.684-3.739c2.115,0,3.656,1.708,3.656,3.712v0.027
		c0,2.004-1.555,3.74-3.684,3.74C391.525,189.146,389.984,187.437,389.984,185.434z M396.582,185.434v-0.028
		c0-1.723-1.289-3.096-2.941-3.096c-1.695,0-2.914,1.387-2.914,3.068v0.027c0,1.724,1.289,3.096,2.941,3.096
		C395.363,188.501,396.582,187.115,396.582,185.434z"/>
	<path fill="#A4DCE8" d="M399.854,182.464h-1.036v-0.63h1.036v-0.7c0-0.812,0.225-1.457,0.631-1.863
		c0.364-0.364,0.868-0.561,1.499-0.561c0.434,0,0.742,0.056,1.064,0.168v0.645c-0.406-0.126-0.701-0.182-1.064-0.182
		c-0.981,0-1.443,0.588-1.443,1.807v0.687h2.493v0.63h-2.493v6.514h-0.687V182.464z"/>
	<path fill="#A4DCE8" d="M409.081,187.143v-4.679h-1.036v-0.63h1.036v-2.283h0.687v2.283h2.508v0.63h-2.508v4.608
		c0,1.022,0.603,1.387,1.429,1.387c0.351,0,0.645-0.069,1.051-0.252v0.645c-0.364,0.168-0.715,0.252-1.163,0.252
		C409.978,189.104,409.081,188.501,409.081,187.143z"/>
	<path fill="#A4DCE8" d="M414.303,178.752h0.687v4.412c0.477-0.84,1.274-1.498,2.577-1.498c1.807,0,2.857,1.232,2.857,2.941v4.37
		h-0.687v-4.244c0-1.471-0.826-2.438-2.269-2.438c-1.401,0-2.479,1.064-2.479,2.55v4.132h-0.687V178.752z"/>
	<path fill="#A4DCE8" d="M422.395,185.42v-0.028c0-2.073,1.457-3.726,3.39-3.726c2.003,0,3.278,1.624,3.278,3.739
		c0,0.126,0,0.168-0.015,0.28h-5.925c0.126,1.779,1.4,2.815,2.802,2.815c1.106,0,1.862-0.49,2.451-1.12l0.476,0.42
		c-0.728,0.784-1.582,1.345-2.955,1.345C424.02,189.146,422.395,187.647,422.395,185.42z M428.319,185.07
		c-0.098-1.442-0.924-2.773-2.563-2.773c-1.414,0-2.507,1.19-2.633,2.773H428.319z"/>
	<path fill="#A4DCE8" d="M435.261,181.834h0.687v1.274c0.462-0.742,1.106-1.442,2.381-1.442c1.247,0,2.018,0.714,2.409,1.54
		c0.463-0.798,1.233-1.54,2.578-1.54c1.694,0,2.745,1.19,2.745,2.983v4.328h-0.687v-4.244c0-1.541-0.798-2.438-2.115-2.438
		c-1.204,0-2.255,0.925-2.255,2.521v4.16h-0.687v-4.286c0-1.485-0.812-2.396-2.087-2.396s-2.283,1.121-2.283,2.563v4.118h-0.687
		V181.834z"/>
	<path fill="#A4DCE8" d="M448.084,185.434v-0.028c0-2.003,1.555-3.739,3.684-3.739c2.115,0,3.656,1.708,3.656,3.712v0.027
		c0,2.004-1.555,3.74-3.684,3.74C449.625,189.146,448.084,187.437,448.084,185.434z M454.682,185.434v-0.028
		c0-1.723-1.289-3.096-2.941-3.096c-1.695,0-2.914,1.387-2.914,3.068v0.027c0,1.724,1.289,3.096,2.941,3.096
		C453.463,188.501,454.682,187.115,454.682,185.434z"/>
	<path fill="#A4DCE8" d="M457.044,185.434v-0.028c0-2.003,1.555-3.739,3.684-3.739c2.115,0,3.656,1.708,3.656,3.712v0.027
		c0,2.004-1.555,3.74-3.684,3.74C458.585,189.146,457.044,187.437,457.044,185.434z M463.642,185.434v-0.028
		c0-1.723-1.289-3.096-2.941-3.096c-1.695,0-2.914,1.387-2.914,3.068v0.027c0,1.724,1.289,3.096,2.941,3.096
		C462.423,188.501,463.642,187.115,463.642,185.434z"/>
	<path fill="#A4DCE8" d="M466.494,181.834h0.687v1.33c0.477-0.84,1.274-1.498,2.577-1.498c1.807,0,2.857,1.232,2.857,2.941v4.37
		h-0.687v-4.244c0-1.471-0.826-2.438-2.269-2.438c-1.401,0-2.479,1.064-2.479,2.55v4.132h-0.687V181.834z"/>
</g>
<g enable-background="new    ">
	<path fill="#A4DCE8" d="M294.803,201.757c0-2.535,1.414-4.594,3.88-5.995l0.294,0.463c-2.213,1.358-3.445,3.193-3.445,5.532
		c0,2.34,1.232,4.175,3.445,5.533l-0.294,0.462C296.217,206.352,294.803,204.293,294.803,201.757z"/>
	<path fill="#A4DCE8" d="M301.131,198.634h0.687v2.031c0.56-1.275,1.751-2.199,3.165-2.144v0.756h-0.07
		c-1.652,0-3.095,1.247-3.095,3.572v2.928h-0.687V198.634z"/>
	<path fill="#A4DCE8" d="M305.888,202.234v-0.028c0-2.003,1.555-3.739,3.684-3.739c2.115,0,3.656,1.708,3.656,3.712v0.027
		c0,2.004-1.555,3.74-3.684,3.74C307.429,205.946,305.888,204.237,305.888,202.234z M312.485,202.234v-0.028
		c0-1.723-1.289-3.096-2.941-3.096c-1.695,0-2.914,1.387-2.914,3.068v0.027c0,1.724,1.289,3.096,2.941,3.096
		C311.267,205.301,312.485,203.915,312.485,202.234z"/>
	<path fill="#A4DCE8" d="M315.198,203.004v-4.37h0.686v4.244c0,1.471,0.827,2.438,2.27,2.438c1.4,0,2.479-1.064,2.479-2.55v-4.132
		h0.687v7.144h-0.687v-1.331c-0.477,0.841-1.274,1.499-2.577,1.499C316.248,205.946,315.198,204.713,315.198,203.004z"/>
	<path fill="#A4DCE8" d="M323.78,206.955l0.406-0.561c0.854,0.658,1.835,1.009,2.885,1.009c1.64,0,2.802-0.938,2.802-2.773v-1.037
		c-0.616,0.883-1.568,1.653-2.983,1.653c-1.723,0-3.432-1.316-3.432-3.362v-0.027c0-2.06,1.709-3.39,3.432-3.39
		c1.429,0,2.396,0.756,2.983,1.597v-1.429h0.687v6.037c0,1.036-0.336,1.849-0.91,2.423c-0.617,0.616-1.541,0.953-2.592,0.953
		C325.867,208.047,324.761,207.683,323.78,206.955z M329.915,201.87v-0.028c0-1.652-1.471-2.717-2.955-2.717
		c-1.499,0-2.76,1.036-2.76,2.703v0.028c0,1.61,1.288,2.731,2.76,2.731C328.444,204.587,329.915,203.495,329.915,201.87z"/>
	<path fill="#A4DCE8" d="M333.16,195.552h0.687v4.412c0.477-0.84,1.274-1.498,2.577-1.498c1.807,0,2.857,1.232,2.857,2.941v4.37
		h-0.687v-4.244c0-1.471-0.826-2.438-2.269-2.438c-1.401,0-2.479,1.064-2.479,2.55v4.132h-0.687V195.552z"/>
	<path fill="#A4DCE8" d="M341.839,195.552h0.687v10.226h-0.687V195.552z"/>
	<path fill="#A4DCE8" d="M344.682,207.752l0.237-0.602c0.379,0.182,0.687,0.266,1.219,0.266c0.743,0,1.233-0.434,1.766-1.681
		l-3.433-7.102h0.799l2.97,6.387l2.577-6.387h0.757l-3.096,7.396c-0.631,1.499-1.359,2.031-2.382,2.031
		C345.55,208.061,345.157,207.963,344.682,207.752z"/>
	<path fill="#A4DCE8" d="M358.037,203.943v-4.679h-1.036v-0.63h1.036v-2.283h0.687v2.283h2.508v0.63h-2.508v4.608
		c0,1.022,0.603,1.387,1.429,1.387c0.351,0,0.645-0.069,1.051-0.252v0.645c-0.364,0.168-0.715,0.252-1.163,0.252
		C358.934,205.904,358.037,205.301,358.037,203.943z"/>
	<path fill="#A4DCE8" d="M363.26,195.552h0.687v4.412c0.477-0.84,1.274-1.498,2.577-1.498c1.807,0,2.857,1.232,2.857,2.941v4.37
		h-0.687v-4.244c0-1.471-0.826-2.438-2.269-2.438c-1.401,0-2.479,1.064-2.479,2.55v4.132h-0.687V195.552z"/>
	<path fill="#A4DCE8" d="M371.351,202.22v-0.028c0-2.073,1.457-3.726,3.39-3.726c2.003,0,3.278,1.624,3.278,3.739
		c0,0.126,0,0.168-0.015,0.28h-5.925c0.126,1.779,1.4,2.815,2.802,2.815c1.106,0,1.862-0.49,2.451-1.12l0.476,0.42
		c-0.728,0.784-1.582,1.345-2.955,1.345C372.976,205.946,371.351,204.447,371.351,202.22z M377.275,201.87
		c-0.098-1.442-0.924-2.773-2.563-2.773c-1.414,0-2.507,1.19-2.633,2.773H377.275z"/>
	<path fill="#A4DCE8" d="M383.755,202.234v-0.028c0-2.325,1.751-3.739,3.474-3.739c1.429,0,2.354,0.812,2.941,1.708v-4.622h0.687
		v10.226h-0.687v-1.597c-0.616,0.938-1.526,1.765-2.941,1.765C385.506,205.946,383.755,204.559,383.755,202.234z M390.212,202.22
		v-0.028c0-1.835-1.429-3.067-2.913-3.067c-1.556,0-2.802,1.135-2.802,3.054v0.027c0,1.877,1.303,3.082,2.802,3.082
		C388.783,205.288,390.212,204.041,390.212,202.22z"/>
	<path fill="#A4DCE8" d="M393.471,195.833h0.854v0.938h-0.854V195.833z M393.555,198.634h0.687v7.144h-0.687V198.634z"/>
	<path fill="#A4DCE8" d="M396.326,204.881l0.406-0.546c0.784,0.602,1.652,0.938,2.563,0.938c0.966,0,1.723-0.532,1.723-1.359v-0.027
		c0-0.841-0.896-1.149-1.891-1.429c-1.163-0.337-2.452-0.687-2.452-1.962v-0.027c0-1.148,0.967-1.976,2.354-1.976
		c0.854,0,1.821,0.309,2.535,0.784l-0.364,0.575c-0.658-0.435-1.442-0.715-2.199-0.715c-0.98,0-1.624,0.532-1.624,1.247v0.027
		c0,0.799,0.966,1.093,1.988,1.387c1.149,0.322,2.354,0.743,2.354,2.004v0.027c0,1.275-1.093,2.087-2.465,2.087
		C398.217,205.917,397.082,205.498,396.326,204.881z"/>
	<path fill="#A4DCE8" d="M404.139,203.943v-4.679h-1.036v-0.63h1.036v-2.283h0.687v2.283h2.508v0.63h-2.508v4.608
		c0,1.022,0.603,1.387,1.429,1.387c0.351,0,0.645-0.069,1.051-0.252v0.645c-0.364,0.168-0.715,0.252-1.163,0.252
		C405.035,205.904,404.139,205.301,404.139,203.943z"/>
	<path fill="#A4DCE8" d="M408.772,203.705v-0.028c0-1.484,1.274-2.325,3.123-2.325c0.995,0,1.681,0.126,2.367,0.309v-0.309
		c0-1.442-0.882-2.185-2.353-2.185c-0.869,0-1.583,0.238-2.241,0.574l-0.253-0.603c0.785-0.364,1.556-0.616,2.536-0.616
		c0.966,0,1.736,0.266,2.255,0.784c0.477,0.477,0.729,1.135,0.729,2.018v4.454h-0.673v-1.19c-0.49,0.687-1.372,1.358-2.731,1.358
		C410.201,205.946,408.772,205.19,408.772,203.705z M414.277,203.102v-0.812c-0.603-0.153-1.401-0.322-2.424-0.322
		c-1.513,0-2.354,0.673-2.354,1.667v0.028c0,1.037,0.98,1.639,2.073,1.639C413.03,205.301,414.277,204.405,414.277,203.102z"/>
	<path fill="#A4DCE8" d="M417.396,198.634h0.687v1.33c0.477-0.84,1.274-1.498,2.577-1.498c1.807,0,2.857,1.232,2.857,2.941v4.37
		h-0.687v-4.244c0-1.471-0.826-2.438-2.269-2.438c-1.401,0-2.479,1.064-2.479,2.55v4.132h-0.687V198.634z"/>
	<path fill="#A4DCE8" d="M425.488,202.234v-0.028c0-2.003,1.597-3.739,3.642-3.739c1.345,0,2.186,0.616,2.857,1.316l-0.49,0.504
		c-0.616-0.63-1.316-1.177-2.381-1.177c-1.625,0-2.886,1.359-2.886,3.068v0.027c0,1.724,1.303,3.096,2.941,3.096
		c1.009,0,1.793-0.518,2.396-1.19l0.477,0.42c-0.729,0.827-1.597,1.415-2.914,1.415
		C427.071,205.946,425.488,204.237,425.488,202.234z"/>
	<path fill="#A4DCE8" d="M433.271,202.22v-0.028c0-2.073,1.457-3.726,3.39-3.726c2.003,0,3.278,1.624,3.278,3.739
		c0,0.126,0,0.168-0.015,0.28h-5.925c0.126,1.779,1.4,2.815,2.802,2.815c1.106,0,1.862-0.49,2.451-1.12l0.476,0.42
		c-0.728,0.784-1.582,1.345-2.955,1.345C434.896,205.946,433.271,204.447,433.271,202.22z M439.195,201.87
		c-0.098-1.442-0.924-2.773-2.563-2.773c-1.414,0-2.507,1.19-2.633,2.773H439.195z"/>
	<path fill="#A4DCE8" d="M446.556,199.264h-1.036v-0.63h1.036v-0.7c0-0.812,0.225-1.457,0.631-1.863
		c0.364-0.364,0.868-0.561,1.499-0.561c0.434,0,0.742,0.056,1.064,0.168v0.645c-0.406-0.126-0.701-0.182-1.064-0.182
		c-0.981,0-1.443,0.588-1.443,1.807v0.687h2.493v0.63h-2.493v6.514h-0.687V199.264z"/>
	<path fill="#A4DCE8" d="M451.204,198.634h0.687v2.031c0.561-1.275,1.751-2.199,3.165-2.144v0.756h-0.069
		c-1.653,0-3.096,1.247-3.096,3.572v2.928h-0.687V198.634z"/>
	<path fill="#A4DCE8" d="M455.962,202.234v-0.028c0-2.003,1.555-3.739,3.684-3.739c2.115,0,3.656,1.708,3.656,3.712v0.027
		c0,2.004-1.555,3.74-3.684,3.74C457.503,205.946,455.962,204.237,455.962,202.234z M462.56,202.234v-0.028
		c0-1.723-1.289-3.096-2.941-3.096c-1.695,0-2.914,1.387-2.914,3.068v0.027c0,1.724,1.289,3.096,2.941,3.096
		C461.341,205.301,462.56,203.915,462.56,202.234z"/>
	<path fill="#A4DCE8" d="M465.412,198.634h0.687v1.274c0.462-0.742,1.106-1.442,2.381-1.442c1.247,0,2.018,0.714,2.409,1.54
		c0.463-0.798,1.233-1.54,2.578-1.54c1.694,0,2.745,1.19,2.745,2.983v4.328h-0.687v-4.244c0-1.541-0.798-2.438-2.115-2.438
		c-1.204,0-2.255,0.925-2.255,2.521v4.16h-0.687v-4.286c0-1.485-0.812-2.396-2.087-2.396s-2.283,1.121-2.283,2.563v4.118h-0.687
		V198.634z"/>
</g>
<g enable-background="new    ">
	<path fill="#A4DCE8" d="M299.464,212.772h0.687l6.766,8.531v-8.531h0.7v9.806h-0.546l-6.905-8.713v8.713h-0.701V212.772z"/>
	<path fill="#A4DCE8" d="M309.88,219.02v-0.028c0-2.073,1.457-3.726,3.39-3.726c2.003,0,3.278,1.624,3.278,3.739
		c0,0.126,0,0.168-0.015,0.28h-5.925c0.126,1.779,1.4,2.815,2.802,2.815c1.106,0,1.862-0.49,2.451-1.12l0.476,0.42
		c-0.728,0.784-1.582,1.345-2.955,1.345C311.505,222.746,309.88,221.247,309.88,219.02z M315.805,218.669
		c-0.098-1.442-0.924-2.773-2.563-2.773c-1.414,0-2.507,1.19-2.633,2.773H315.805z"/>
	<path fill="#A4DCE8" d="M317.578,215.434h0.771l2.157,6.275l2.157-6.304h0.546l2.157,6.304l2.157-6.275h0.742l-2.619,7.199h-0.589
		l-2.129-6.121l-2.143,6.121h-0.589L317.578,215.434z"/>
	<path fill="#A4DCE8" d="M337.796,218.698l-4.202-5.926h0.91l3.67,5.268l3.685-5.268h0.868l-4.202,5.911v3.895h-0.729V218.698z"/>
	<path fill="#A4DCE8" d="M342.439,219.034v-0.028c0-2.003,1.555-3.739,3.684-3.739c2.115,0,3.656,1.708,3.656,3.712v0.027
		c0,2.004-1.555,3.74-3.684,3.74C343.98,222.746,342.439,221.037,342.439,219.034z M349.037,219.034v-0.028
		c0-1.723-1.289-3.096-2.941-3.096c-1.695,0-2.914,1.387-2.914,3.068v0.027c0,1.724,1.289,3.096,2.941,3.096
		C347.818,222.101,349.037,220.714,349.037,219.034z"/>
	<path fill="#A4DCE8" d="M351.89,215.434h0.687v2.031c0.561-1.275,1.751-2.199,3.165-2.144v0.756h-0.069
		c-1.653,0-3.096,1.247-3.096,3.572v2.928h-0.687V215.434z"/>
	<path fill="#A4DCE8" d="M357.49,212.352h0.687v7.662l4.426-4.58h0.911l-3.124,3.165l3.222,3.979h-0.868l-2.83-3.488l-1.736,1.751
		v1.737h-0.687V212.352z"/>
	<path fill="#A4DCE8" d="M369.908,220.743v-4.679h-1.036v-0.63h1.036v-2.283h0.687v2.283h2.508v0.63h-2.508v4.608
		c0,1.022,0.603,1.387,1.429,1.387c0.351,0,0.645-0.069,1.051-0.252v0.645c-0.364,0.168-0.715,0.252-1.163,0.252
		C370.805,222.704,369.908,222.101,369.908,220.743z"/>
	<path fill="#A4DCE8" d="M374.428,219.034v-0.028c0-2.003,1.555-3.739,3.684-3.739c2.115,0,3.656,1.708,3.656,3.712v0.027
		c0,2.004-1.555,3.74-3.684,3.74C375.969,222.746,374.428,221.037,374.428,219.034z M381.025,219.034v-0.028
		c0-1.723-1.289-3.096-2.941-3.096c-1.695,0-2.914,1.387-2.914,3.068v0.027c0,1.724,1.289,3.096,2.941,3.096
		C379.807,222.101,381.025,220.714,381.025,219.034z"/>
	<path fill="#A4DCE8" d="M388.231,212.772h0.729v9.134h5.757v0.672h-6.485V212.772z"/>
	<path fill="#A4DCE8" d="M396.155,220.504v-0.028c0-1.484,1.274-2.325,3.123-2.325c0.995,0,1.681,0.126,2.367,0.309v-0.309
		c0-1.442-0.882-2.185-2.353-2.185c-0.869,0-1.583,0.238-2.241,0.574l-0.253-0.603c0.785-0.364,1.556-0.616,2.536-0.616
		c0.966,0,1.736,0.266,2.255,0.784c0.477,0.477,0.729,1.135,0.729,2.018v4.454h-0.673v-1.19c-0.49,0.687-1.372,1.358-2.731,1.358
		C397.584,222.746,396.155,221.99,396.155,220.504z M401.66,219.902v-0.812c-0.603-0.153-1.401-0.322-2.424-0.322
		c-1.513,0-2.354,0.673-2.354,1.667v0.028c0,1.037,0.98,1.639,2.073,1.639C400.413,222.101,401.66,221.205,401.66,219.902z"/>
	<path fill="#A4DCE8" d="M404.163,221.681l0.406-0.546c0.784,0.602,1.652,0.938,2.563,0.938c0.966,0,1.723-0.532,1.723-1.359v-0.027
		c0-0.841-0.896-1.149-1.891-1.429c-1.163-0.337-2.452-0.687-2.452-1.962v-0.027c0-1.148,0.967-1.976,2.354-1.976
		c0.854,0,1.821,0.309,2.535,0.784l-0.364,0.575c-0.658-0.435-1.442-0.715-2.198-0.715c-0.981,0-1.625,0.532-1.625,1.247v0.027
		c0,0.799,0.966,1.093,1.988,1.387c1.149,0.322,2.354,0.743,2.354,2.004v0.027c0,1.275-1.093,2.087-2.465,2.087
		C406.054,222.717,404.919,222.297,404.163,221.681z"/>
	<path fill="#A4DCE8" d="M415.251,212.772h0.812l3.838,9.021l3.853-9.021h0.771l-4.314,9.876h-0.645L415.251,212.772z"/>
	<path fill="#A4DCE8" d="M424.966,219.02v-0.028c0-2.073,1.457-3.726,3.39-3.726c2.003,0,3.278,1.624,3.278,3.739
		c0,0.126,0,0.168-0.015,0.28h-5.925c0.126,1.779,1.4,2.815,2.802,2.815c1.106,0,1.862-0.49,2.451-1.12l0.476,0.42
		c-0.728,0.784-1.582,1.345-2.955,1.345C426.591,222.746,424.966,221.247,424.966,219.02z M430.891,218.669
		c-0.098-1.442-0.924-2.773-2.563-2.773c-1.414,0-2.507,1.19-2.633,2.773H430.891z"/>
	<path fill="#A4DCE8" d="M433.492,223.754l0.405-0.561c0.854,0.658,1.836,1.009,2.886,1.009c1.64,0,2.802-0.938,2.802-2.773v-1.037
		c-0.616,0.883-1.568,1.653-2.983,1.653c-1.723,0-3.432-1.316-3.432-3.362v-0.027c0-2.06,1.709-3.39,3.432-3.39
		c1.429,0,2.396,0.756,2.983,1.597v-1.429h0.687v6.037c0,1.036-0.336,1.849-0.91,2.423c-0.617,0.616-1.541,0.953-2.592,0.953
		C435.579,224.847,434.473,224.483,433.492,223.754z M439.627,218.669v-0.028c0-1.652-1.471-2.717-2.955-2.717
		c-1.499,0-2.76,1.036-2.76,2.703v0.028c0,1.61,1.288,2.731,2.76,2.731C438.156,221.387,439.627,220.294,439.627,218.669z"/>
	<path fill="#A4DCE8" d="M442.284,220.504v-0.028c0-1.484,1.274-2.325,3.123-2.325c0.995,0,1.681,0.126,2.367,0.309v-0.309
		c0-1.442-0.882-2.185-2.353-2.185c-0.869,0-1.583,0.238-2.241,0.574l-0.253-0.603c0.785-0.364,1.556-0.616,2.536-0.616
		c0.966,0,1.736,0.266,2.255,0.784c0.477,0.477,0.729,1.135,0.729,2.018v4.454h-0.673v-1.19c-0.49,0.687-1.372,1.358-2.731,1.358
		C443.713,222.746,442.284,221.99,442.284,220.504z M447.789,219.902v-0.812c-0.603-0.153-1.401-0.322-2.424-0.322
		c-1.513,0-2.354,0.673-2.354,1.667v0.028c0,1.037,0.98,1.639,2.073,1.639C446.542,222.101,447.789,221.205,447.789,219.902z"/>
	<path fill="#A4DCE8" d="M450.292,221.681l0.406-0.546c0.784,0.602,1.652,0.938,2.563,0.938c0.966,0,1.723-0.532,1.723-1.359v-0.027
		c0-0.841-0.896-1.149-1.891-1.429c-1.163-0.337-2.452-0.687-2.452-1.962v-0.027c0-1.148,0.967-1.976,2.354-1.976
		c0.854,0,1.821,0.309,2.535,0.784l-0.364,0.575c-0.658-0.435-1.442-0.715-2.198-0.715c-0.981,0-1.625,0.532-1.625,1.247v0.027
		c0,0.799,0.966,1.093,1.988,1.387c1.149,0.322,2.354,0.743,2.354,2.004v0.027c0,1.275-1.093,2.087-2.465,2.087
		C452.183,222.717,451.048,222.297,450.292,221.681z"/>
	<path fill="#A4DCE8" d="M457.137,224.09c2.213-1.358,3.446-3.193,3.446-5.533c0-2.339-1.233-4.174-3.446-5.532l0.294-0.463
		c2.466,1.401,3.88,3.46,3.88,5.995c0,2.536-1.414,4.595-3.88,5.995L457.137,224.09z"/>
</g>
<g enable-background="new    ">
	<path fill="#FFFFFF" d="M125.687,199.156h8.174v0.918h-8.174V199.156z M125.687,203.207h8.174v0.918h-8.174V203.207z"/>
	<path fill="#FFFFFF" d="M141.725,205.925l0.72-0.594c1.009,1.278,2.269,2.017,3.926,2.017c1.692,0,3.114-1.135,3.114-2.791v-0.036
		c0-1.765-1.656-2.736-3.925-2.736h-0.685l-0.233-0.522l4.339-5.006h-6.608v-0.882h7.887v0.666l-4.268,4.879
		c2.395,0.145,4.466,1.261,4.466,3.565v0.036c0,2.196-1.927,3.673-4.105,3.673C144.299,208.194,142.751,207.257,141.725,205.925z"/>
	<path fill="#FFFFFF" d="M159.744,204.899h-6.824l-0.324-0.702l7.202-8.913h0.847v8.805h2.052v0.81h-2.052v3.079h-0.9V204.899z
		 M159.744,204.089v-7.455l-6.014,7.455H159.744z"/>
	<path fill="#FFFFFF" d="M171.497,196.274h-7.31v-0.9h8.354v0.684l-5.744,11.919h-1.026L171.497,196.274z"/>
	<path fill="#FFFFFF" d="M180.008,204.899h-6.824l-0.324-0.702l7.202-8.913h0.847v8.805h2.052v0.81h-2.052v3.079h-0.9V204.899z
		 M180.008,204.089v-7.455l-6.014,7.455H180.008z"/>
	<path fill="#FFFFFF" d="M185.423,206.448h1.188v1.53h-1.188V206.448z"/>
	<path fill="#FFFFFF" d="M189.077,204.611v-0.036c0-1.477,1.206-2.593,2.791-3.114c-1.242-0.505-2.358-1.44-2.358-2.936v-0.036
		c0-1.962,2.07-3.294,4.249-3.294s4.249,1.333,4.249,3.294v0.036c0,1.495-1.116,2.431-2.358,2.936
		c1.584,0.521,2.791,1.638,2.791,3.114v0.036c0,2.089-2.035,3.547-4.682,3.547S189.077,206.7,189.077,204.611z M197.468,204.647
		v-0.036c0-1.566-1.656-2.7-3.709-2.7s-3.709,1.134-3.709,2.7v0.036c0,1.423,1.386,2.665,3.709,2.665
		C196.081,207.312,197.468,206.07,197.468,204.647z M197.035,198.525v-0.036c0-1.422-1.44-2.448-3.276-2.448
		c-1.837,0-3.277,1.026-3.277,2.448v0.036c0,1.549,1.494,2.593,3.277,2.593C195.541,201.118,197.035,200.074,197.035,198.525z"/>
	<path fill="#FFFFFF" d="M206.501,194.834h0.882v9.849l5.689-5.888h1.171l-4.016,4.069l4.142,5.113h-1.116l-3.638-4.483
		l-2.232,2.251v2.232h-0.882V194.834z"/>
	<path fill="#FFFFFF" d="M216.581,198.795h0.882v1.639c0.595-0.954,1.423-1.854,3.062-1.854c1.602,0,2.592,0.918,3.097,1.98
		c0.594-1.026,1.584-1.98,3.312-1.98c2.179,0,3.529,1.53,3.529,3.835v5.563h-0.882v-5.456c0-1.98-1.026-3.133-2.719-3.133
		c-1.549,0-2.899,1.188-2.899,3.241v5.348h-0.882v-5.51c0-1.908-1.045-3.079-2.684-3.079c-1.638,0-2.935,1.44-2.935,3.295v5.294
		h-0.882V198.795z"/>
</g>
<g>
	<g enable-background="new    ">
		<path fill="#A4DCE8" d="M91.365,341.191l-2.161,0.736l-0.224-0.656l2.561-0.944h0.641v11.284h-0.816V341.191z"/>
		<path fill="#A4DCE8" d="M94.9,346.041v-0.032c0-3.089,1.809-5.794,4.658-5.794c2.849,0,4.625,2.673,4.625,5.762v0.032
			c0,3.09-1.809,5.795-4.657,5.795C96.677,351.804,94.9,349.13,94.9,346.041z M103.319,346.041v-0.032
			c0-2.608-1.473-5.042-3.793-5.042c-2.321,0-3.762,2.401-3.762,5.01v0.032c0,2.594,1.473,5.042,3.794,5.042
			C101.879,351.051,103.319,348.634,103.319,346.041z"/>
		<path fill="#A4DCE8" d="M106.26,346.041v-0.032c0-3.089,1.81-5.794,4.658-5.794c2.85,0,4.626,2.673,4.626,5.762v0.032
			c0,3.09-1.809,5.795-4.658,5.795C108.037,351.804,106.26,349.13,106.26,346.041z M114.68,346.041v-0.032
			c0-2.608-1.473-5.042-3.794-5.042c-2.32,0-3.762,2.401-3.762,5.01v0.032c0,2.594,1.473,5.042,3.794,5.042
			S114.68,348.634,114.68,346.041z"/>
		<path fill="#A4DCE8" d="M117.108,352.924c0.688-0.353,0.944-0.704,0.896-1.312h-0.433v-1.36h1.057v1.185
			c0,0.992-0.368,1.521-1.329,1.889L117.108,352.924z"/>
		<path fill="#A4DCE8" d="M120.659,346.041v-0.032c0-3.089,1.81-5.794,4.658-5.794c2.85,0,4.626,2.673,4.626,5.762v0.032
			c0,3.09-1.809,5.795-4.658,5.795C122.437,351.804,120.659,349.13,120.659,346.041z M129.079,346.041v-0.032
			c0-2.608-1.473-5.042-3.794-5.042c-2.32,0-3.762,2.401-3.762,5.01v0.032c0,2.594,1.473,5.042,3.794,5.042
			S129.079,348.634,129.079,346.041z"/>
		<path fill="#A4DCE8" d="M132.019,346.041v-0.032c0-3.089,1.81-5.794,4.658-5.794c2.85,0,4.626,2.673,4.626,5.762v0.032
			c0,3.09-1.809,5.795-4.658,5.795C133.796,351.804,132.019,349.13,132.019,346.041z M140.438,346.041v-0.032
			c0-2.608-1.473-5.042-3.794-5.042c-2.32,0-3.762,2.401-3.762,5.01v0.032c0,2.594,1.473,5.042,3.794,5.042
			S140.438,348.634,140.438,346.041z"/>
		<path fill="#A4DCE8" d="M143.379,346.041v-0.032c0-3.089,1.81-5.794,4.658-5.794c2.85,0,4.626,2.673,4.626,5.762v0.032
			c0,3.09-1.809,5.795-4.658,5.795C145.156,351.804,143.379,349.13,143.379,346.041z M151.799,346.041v-0.032
			c0-2.608-1.473-5.042-3.794-5.042c-2.32,0-3.762,2.401-3.762,5.01v0.032c0,2.594,1.473,5.042,3.794,5.042
			S151.799,348.634,151.799,346.041z"/>
		<path fill="#A4DCE8" d="M159.986,339.927h0.784v8.756l5.059-5.234h1.04l-3.569,3.617l3.682,4.546h-0.992l-3.233-3.985
			l-1.985,2.001v1.984h-0.784V339.927z"/>
		<path fill="#A4DCE8" d="M168.946,343.448h0.784v1.456c0.528-0.848,1.265-1.648,2.722-1.648c1.425,0,2.305,0.816,2.753,1.761
			c0.528-0.912,1.408-1.761,2.945-1.761c1.937,0,3.137,1.36,3.137,3.409v4.946h-0.784v-4.85c0-1.761-0.912-2.785-2.417-2.785
			c-1.376,0-2.577,1.056-2.577,2.881v4.754h-0.784v-4.898c0-1.696-0.928-2.736-2.385-2.736c-1.456,0-2.609,1.28-2.609,2.929v4.706
			h-0.784V343.448z"/>
	</g>
</g>
<g>
	<g enable-background="new    ">
		<path fill="#A4DCE8" d="M352.775,341.191l-2.161,0.736l-0.224-0.656l2.561-0.944h0.641v11.284h-0.816V341.191z"/>
		<path fill="#A4DCE8" d="M356.118,352.924c0.688-0.353,0.944-0.704,0.896-1.312h-0.432v-1.36h1.057v1.185
			c0,0.992-0.368,1.521-1.329,1.889L356.118,352.924z"/>
		<path fill="#A4DCE8" d="M359.671,346.041v-0.032c0-3.089,1.809-5.794,4.657-5.794c2.85,0,4.626,2.673,4.626,5.762v0.032
			c0,3.09-1.809,5.795-4.658,5.795C361.447,351.804,359.671,349.13,359.671,346.041z M368.09,346.041v-0.032
			c0-2.608-1.473-5.042-3.794-5.042c-2.32,0-3.762,2.401-3.762,5.01v0.032c0,2.594,1.473,5.042,3.794,5.042
			S368.09,348.634,368.09,346.041z"/>
		<path fill="#A4DCE8" d="M371.029,346.041v-0.032c0-3.089,1.81-5.794,4.658-5.794c2.85,0,4.626,2.673,4.626,5.762v0.032
			c0,3.09-1.809,5.795-4.658,5.795C372.807,351.804,371.029,349.13,371.029,346.041z M379.449,346.041v-0.032
			c0-2.608-1.473-5.042-3.794-5.042c-2.32,0-3.762,2.401-3.762,5.01v0.032c0,2.594,1.473,5.042,3.794,5.042
			S379.449,348.634,379.449,346.041z"/>
		<path fill="#A4DCE8" d="M382.39,346.041v-0.032c0-3.089,1.81-5.794,4.658-5.794c2.85,0,4.626,2.673,4.626,5.762v0.032
			c0,3.09-1.809,5.795-4.658,5.795C384.167,351.804,382.39,349.13,382.39,346.041z M390.81,346.041v-0.032
			c0-2.608-1.473-5.042-3.794-5.042c-2.32,0-3.762,2.401-3.762,5.01v0.032c0,2.594,1.473,5.042,3.794,5.042
			S390.81,348.634,390.81,346.041z"/>
		<path fill="#A4DCE8" d="M393.237,352.924c0.688-0.353,0.944-0.704,0.896-1.312h-0.433v-1.36h1.057v1.185
			c0,0.992-0.368,1.521-1.329,1.889L393.237,352.924z"/>
		<path fill="#A4DCE8" d="M396.788,346.041v-0.032c0-3.089,1.81-5.794,4.658-5.794c2.85,0,4.626,2.673,4.626,5.762v0.032
			c0,3.09-1.809,5.795-4.658,5.795C398.565,351.804,396.788,349.13,396.788,346.041z M405.208,346.041v-0.032
			c0-2.608-1.473-5.042-3.794-5.042c-2.32,0-3.762,2.401-3.762,5.01v0.032c0,2.594,1.473,5.042,3.794,5.042
			S405.208,348.634,405.208,346.041z"/>
		<path fill="#A4DCE8" d="M408.148,346.041v-0.032c0-3.089,1.81-5.794,4.658-5.794c2.85,0,4.626,2.673,4.626,5.762v0.032
			c0,3.09-1.809,5.795-4.658,5.795C409.926,351.804,408.148,349.13,408.148,346.041z M416.568,346.041v-0.032
			c0-2.608-1.473-5.042-3.794-5.042c-2.32,0-3.762,2.401-3.762,5.01v0.032c0,2.594,1.473,5.042,3.794,5.042
			S416.568,348.634,416.568,346.041z"/>
		<path fill="#A4DCE8" d="M419.509,346.041v-0.032c0-3.089,1.81-5.794,4.658-5.794c2.85,0,4.626,2.673,4.626,5.762v0.032
			c0,3.09-1.809,5.795-4.658,5.795C421.286,351.804,419.509,349.13,419.509,346.041z M427.929,346.041v-0.032
			c0-2.608-1.473-5.042-3.794-5.042c-2.32,0-3.762,2.401-3.762,5.01v0.032c0,2.594,1.473,5.042,3.794,5.042
			S427.929,348.634,427.929,346.041z"/>
		<path fill="#A4DCE8" d="M436.116,339.927h0.784v8.756l5.059-5.234h1.04l-3.569,3.617l3.682,4.546h-0.992l-3.233-3.985
			l-1.985,2.001v1.984h-0.784V339.927z"/>
		<path fill="#A4DCE8" d="M445.076,343.448h0.784v1.456c0.528-0.848,1.265-1.648,2.722-1.648c1.425,0,2.305,0.816,2.753,1.761
			c0.528-0.912,1.408-1.761,2.945-1.761c1.937,0,3.138,1.36,3.138,3.409v4.946h-0.785v-4.85c0-1.761-0.912-2.785-2.417-2.785
			c-1.376,0-2.577,1.056-2.577,2.881v4.754h-0.784v-4.898c0-1.696-0.928-2.736-2.385-2.736c-1.456,0-2.609,1.28-2.609,2.929v4.706
			h-0.784V343.448z"/>
	</g>
</g>
<g>
	<g enable-background="new    ">
		<path fill="#B5B5B5" d="M193.799,114.626l1.088-1.248c2.464,2.271,4.736,3.328,8.031,3.328c3.36,0,5.664-1.889,5.664-4.448v-0.063
			c0-2.368-1.248-3.744-6.336-4.768c-5.375-1.088-7.551-2.912-7.551-6.303v-0.064c0-3.328,3.04-5.888,7.2-5.888
			c3.264,0,5.407,0.896,7.68,2.72l-1.057,1.312c-2.111-1.824-4.224-2.528-6.687-2.528c-3.296,0-5.472,1.888-5.472,4.224v0.064
			c0,2.368,1.216,3.808,6.528,4.896c5.184,1.056,7.359,2.912,7.359,6.176v0.063c0,3.616-3.104,6.112-7.424,6.112
			C199.239,118.21,196.487,117.026,193.799,114.626z"/>
		<path fill="#B5B5B5" d="M214.728,106.755v-0.064c0-6.335,4.735-11.583,11.199-11.583c4,0,6.399,1.472,8.703,3.583l-1.184,1.216
			c-1.952-1.888-4.192-3.295-7.552-3.295c-5.376,0-9.439,4.384-9.439,10.015v0.064c0,5.664,4.128,10.079,9.472,10.079
			c3.231,0,5.439-1.248,7.711-3.487l1.12,1.088c-2.367,2.336-4.928,3.903-8.896,3.903
			C219.463,118.274,214.728,113.186,214.728,106.755z"/>
		<path fill="#B5B5B5" d="M247.846,95.332h1.601l10.43,22.559h-1.823l-2.849-6.271h-13.214l-2.848,6.271h-1.728L247.846,95.332z
			 M254.502,110.115l-5.887-12.959l-5.92,12.959H254.502z"/>
		<path fill="#B5B5B5" d="M264.614,95.492h1.663v20.862h13.151v1.536h-14.814V95.492z"/>
		<path fill="#B5B5B5" d="M284.423,95.492h15.935v1.536h-14.271v8.799h12.831v1.536h-12.831v8.991h14.432v1.536h-16.095V95.492z"/>
	</g>
	<line fill="none" stroke="#FFFFFF" stroke-width="0.5" stroke-miterlimit="10" x1="171.365" y1="105" x2="12.5" y2="105"/>
	<line fill="none" stroke="#FFFFFF" stroke-width="0.5" stroke-miterlimit="10" x1="316.528" y1="105" x2="488.5" y2="105"/>
</g>
<line fill="none" stroke="#FFFFFF" stroke-width="0.5" stroke-miterlimit="10" x1="12.5" y1="410" x2="488.5" y2="410"/>
</svg>
