<?xml version="1.0" encoding="utf-8"?>
<!-- Generator: Adobe Illustrator 17.1.0, SVG Export Plug-In . SVG Version: 6.00 Build 0)  -->
<!DOCTYPE svg PUBLIC "-//W3C//DTD SVG 1.1//EN" "http://www.w3.org/Graphics/SVG/1.1/DTD/svg11.dtd">
<svg version="1.1" id="Layer_1" xmlns="http://www.w3.org/2000/svg" xmlns:xlink="http://www.w3.org/1999/xlink" x="0px" y="0px"
	 viewBox="0 0 250 250" enable-background="new 0 0 250 250" xml:space="preserve">
<path fill="#FFFFFF" d="M206.5,120.7c-4.3,4.5-10.4,7.8-19.6,7c-9.8,34.3-36.9,51.4-78.1,54.3c-1.5,0-3.1,0-4.6,0
	c-29.3-1.6-47.4-14.4-61.1-31.7c0,0,0-0.1,0-0.1c7.8,6,17.6,11.8,31.3,10.8c12-0.9,20.6-6.1,27.6-12.1c0.4-0.3,1.1-0.8,1-1.1
	c-4.9,0.3-9.7-1.4-11.1-4.9c-1.8-4.4,2.7-7.3,5.6-9.1c-10.3,0.4-16-3.9-19.6-10.2c2.2-3,6.3-4.1,10.8-4.7
	c-9.1-2.3-16.4-6.4-17.7-16.6c2.9-0.6,5.9-0.9,9.1-1.2c-6.3-4.3-13.4-9.5-13-20.5c14.7,5.8,30.1,11.8,43.3,19.5
	c3.9,2.2,7.5,5.8,10.7,8.9c0,0,0.3,0.4,0.5,0.2c2.9-7.8,6.2-15.6,10.2-22.6c4-6.8,8.5-13.4,15.3-17.1c-0.2,1.5-1.3,2.6-1.5,3.7
	c3.1-2.5,6.9-4.4,11.6-5.3c0.1,0,0.2,0,0.4,0c-0.4,2.8-2.8,3.6-4.6,5.1c1.9-0.7,3.7-1.4,6-2c1.8-0.4,5.9-1.2,6,1.1
	c0.1,2.1-3.9,3.3-5.8,4.1c-2.7,1-5.2,1.5-7.7,2.2c20.7,1.6,30.5,14.1,35.1,31.8c5.4,1.8,14.6,1.5,19.2-0.4c-2.7,6.2-9.7,8-17.4,9
	c4.7,1.9,11.9,2.7,18.2,1.7C206.5,120.6,206.5,120.7,206.5,120.7z"/>
</svg>
